<svg width="200" height="200" viewBox="0 0 200 200" fill="none" xmlns="http://www.w3.org/2000/svg">
<g clip-path="url(#clip0_14_7)">
<path fill-rule="evenodd" clip-rule="evenodd" d="M188.889 69.298C188.889 79.4728 180.597 87.7191 170.37 87.7191C160.143 87.7191 151.852 79.4728 151.852 69.298C151.852 59.1232 160.143 50.877 170.37 50.877C180.597 50.877 188.889 59.1232 188.889 69.298ZM49.3826 70.5261C49.3826 80.7009 41.0915 88.9471 30.8641 88.9471C20.6367 88.9471 12.3456 80.7009 12.3456 70.5261C12.3456 60.3513 20.6367 52.105 30.8641 52.105C41.0915 52.105 49.3826 60.3513 49.3826 70.5261ZM0.617188 115.965C0.617188 105.79 8.90832 97.5436 19.1357 97.5436H41.3579C47.5356 97.5436 53.0079 100.554 56.3716 105.178C42.8566 110.671 33.3332 123.878 33.3332 139.298H10.4937C5.03945 139.298 0.617188 134.899 0.617188 129.473V115.965ZM144.834 104.411C159.432 109.352 169.934 123.105 169.934 139.298H190.123C195.578 139.298 200 134.899 200 129.473V115.965C200 105.79 191.709 97.5436 181.481 97.5436H159.259C153.43 97.5436 148.23 100.223 144.834 104.411Z" fill="#D0D0D0"/>
<path fill-rule="evenodd" clip-rule="evenodd" d="M100.617 97.5439C119.367 97.5439 134.568 82.4232 134.568 63.7719C134.568 45.1206 119.367 30 100.617 30C81.867 30 66.6664 45.1206 66.6664 63.7719C66.6664 82.4232 81.867 97.5439 100.617 97.5439ZM75.3083 107.368C55.5347 107.368 39.5059 123.314 39.5059 142.982V151.579C39.5059 161.754 47.797 170 58.0244 170H143.21C153.437 170 161.728 161.754 161.728 151.579V142.982C161.728 123.314 145.7 107.368 125.926 107.368C119.565 107.368 116.323 108.611 113.101 109.846C109.917 111.067 106.752 112.281 100.617 112.281C94.4815 112.281 91.3167 111.067 88.1327 109.846C84.9112 108.611 81.6692 107.368 75.3083 107.368Z" fill="#E5E5E5"/>
</g>
<defs>
<clipPath id="clip0_14_7">
<rect width="200" height="140" fill="white" transform="translate(0 30)"/>
</clipPath>
</defs>
</svg>
