<svg width="200" height="200" viewBox="0 0 200 200" fill="none" xmlns="http://www.w3.org/2000/svg">
<path d="M99.9589 90H89V173.333H99.9589V90Z" fill="#505050"/>
<path d="M20 29.5385C20 13.2242 33.0246 0 49.0909 0L129.091 0.461538C144.906 0.461538 157.728 13.4792 157.728 29.5385V84V84.4615H158.182H192.273C193.78 84.4615 195 85.7008 195 87.2308C195 88.7607 193.78 90 192.273 90H100.455H20V29.5385Z" fill="#F5F5F5"/>
<path fill-rule="evenodd" clip-rule="evenodd" d="M128.952 0C144.942 0 158 13.1574 158 29.3878V84H192C193.749 84 195 85.2248 195 87C195 88.7752 193.749 90 192 90H100V83.5714V29.3878C100 13.1574 112.963 0 128.952 0Z" fill="#E5E5E5"/>
<path fill-rule="evenodd" clip-rule="evenodd" d="M48.7015 60H29V80H48.7015V64.7619H86.7612C87.9978 64.7619 89 63.6961 89 62.381C89 61.0658 87.9978 60 86.7612 60H48.7015Z" fill="#505050"/>
<path d="M0 169.484C0 184.805 12.2663 200 27.3973 200H177.169C189.778 200 200 189.649 200 176.882C200 164.114 189.778 153.763 177.169 153.763C174.41 153.763 171.765 154.258 169.316 155.167C166.54 140.156 153.53 128.796 137.9 128.796C125.962 128.796 115.552 135.422 110.064 145.24C107.336 127.543 92.2173 114 73.9726 114C56.1777 114 41.3554 126.885 38.1056 143.942C34.8164 142.526 31.1965 141.742 27.3973 141.742C12.2663 141.742 0 154.163 0 169.484Z" fill="#F5F5F5"/>
<path fill-rule="evenodd" clip-rule="evenodd" d="M100 29.3883V83.572V84.0005H150V58.0005C150 33.2449 132.009 12.6912 108.389 8.70117C103.203 14.0118 100 21.3204 100 29.3883Z" fill="#D0D0D0"/>
</svg>
